<svg width="25" height="25" viewBox="0 0 25 25" fill="none" xmlns="http://www.w3.org/2000/svg">
<path d="M24.0604 11.8406L11.6955 0.99038C11.6006 0.907654 11.4795 0.861328 11.3518 0.861328H8.45532C8.21313 0.861328 8.10185 1.16576 8.28513 1.32459L19.7468 11.384H0.593862C0.449855 11.384 0.332031 11.5031 0.332031 11.6487V13.6341C0.332031 13.7797 0.449855 13.8989 0.593862 13.8989H19.7435L8.28186 23.9583C8.09858 24.1204 8.20985 24.4215 8.45205 24.4215H11.4467C11.5089 24.4215 11.5711 24.3984 11.6169 24.3554L24.0604 13.4422C24.1737 13.3426 24.2646 13.2196 24.3268 13.0814C24.3891 12.9433 24.4213 12.7932 24.4213 12.6414C24.4213 12.4896 24.3891 12.3396 24.3268 12.2014C24.2646 12.0633 24.1737 11.9403 24.0604 11.8406Z" fill="white"/>
</svg>
